solid OpenSCAD_Model
  facet normal 1 -0 0
    outer loop
      vertex 40 -30 10
      vertex 40 30 -10
      vertex 40 30 10
    endloop
  endfacet
  facet normal 1 0 0
    outer loop
      vertex 40 30 -10
      vertex 40 -30 10
      vertex 40 -30 -10
    endloop
  endfacet
  facet normal 0 0 1
    outer loop
      vertex 40 30 10
      vertex 4 0 10
      vertex 40 -30 10
    endloop
  endfacet
  facet normal 0 0 1
    outer loop
      vertex 40 30 10
      vertex 3.92314 0.780361 10
      vertex 4 0 10
    endloop
  endfacet
  facet normal 0 0 1
    outer loop
      vertex 40 30 10
      vertex 3.69552 1.53073 10
      vertex 3.92314 0.780361 10
    endloop
  endfacet
  facet normal 0 0 1
    outer loop
      vertex 40 30 10
      vertex 3.32588 2.22228 10
      vertex 3.69552 1.53073 10
    endloop
  endfacet
  facet normal 0 0 1
    outer loop
      vertex 40 30 10
      vertex 2.82843 2.82843 10
      vertex 3.32588 2.22228 10
    endloop
  endfacet
  facet normal 0 0 1
    outer loop
      vertex 40 30 10
      vertex 2.22228 3.32588 10
      vertex 2.82843 2.82843 10
    endloop
  endfacet
  facet normal 0 0 1
    outer loop
      vertex 40 30 10
      vertex 1.53073 3.69552 10
      vertex 2.22228 3.32588 10
    endloop
  endfacet
  facet normal 0 0 1
    outer loop
      vertex 40 30 10
      vertex 0.780361 3.92314 10
      vertex 1.53073 3.69552 10
    endloop
  endfacet
  facet normal 0 0 1
    outer loop
      vertex 40 30 10
      vertex 0 4 10
      vertex 0.780361 3.92314 10
    endloop
  endfacet
  facet normal -0 0 1
    outer loop
      vertex -40 30 10
      vertex 0 4 10
      vertex 40 30 10
    endloop
  endfacet
  facet normal 0 0 1
    outer loop
      vertex 0 4 10
      vertex -40 30 10
      vertex -0.780361 3.92314 10
    endloop
  endfacet
  facet normal 0 0 1
    outer loop
      vertex -0.780361 3.92314 10
      vertex -40 30 10
      vertex -1.53073 3.69552 10
    endloop
  endfacet
  facet normal 0 0 1
    outer loop
      vertex -3.92314 0.780361 10
      vertex -40 30 10
      vertex -4 0 10
    endloop
  endfacet
  facet normal 0 0 1
    outer loop
      vertex -3.69552 1.53073 10
      vertex -40 30 10
      vertex -3.92314 0.780361 10
    endloop
  endfacet
  facet normal 0 0 1
    outer loop
      vertex -3.32588 2.22228 10
      vertex -40 30 10
      vertex -3.69552 1.53073 10
    endloop
  endfacet
  facet normal 0 0 1
    outer loop
      vertex -2.82843 2.82843 10
      vertex -40 30 10
      vertex -3.32588 2.22228 10
    endloop
  endfacet
  facet normal 0 0 1
    outer loop
      vertex -2.22228 3.32588 10
      vertex -40 30 10
      vertex -2.82843 2.82843 10
    endloop
  endfacet
  facet normal 0 0 1
    outer loop
      vertex -1.53073 3.69552 10
      vertex -40 30 10
      vertex -2.22228 3.32588 10
    endloop
  endfacet
  facet normal -0 0 1
    outer loop
      vertex 3.92314 -0.780361 10
      vertex 40 -30 10
      vertex 4 0 10
    endloop
  endfacet
  facet normal -0 0 1
    outer loop
      vertex 3.69552 -1.53073 10
      vertex 40 -30 10
      vertex 3.92314 -0.780361 10
    endloop
  endfacet
  facet normal -0 0 1
    outer loop
      vertex 3.32588 -2.22228 10
      vertex 40 -30 10
      vertex 3.69552 -1.53073 10
    endloop
  endfacet
  facet normal -0 0 1
    outer loop
      vertex 2.82843 -2.82843 10
      vertex 40 -30 10
      vertex 3.32588 -2.22228 10
    endloop
  endfacet
  facet normal -0 0 1
    outer loop
      vertex 2.22228 -3.32588 10
      vertex 40 -30 10
      vertex 2.82843 -2.82843 10
    endloop
  endfacet
  facet normal -0 0 1
    outer loop
      vertex 1.53073 -3.69552 10
      vertex 40 -30 10
      vertex 2.22228 -3.32588 10
    endloop
  endfacet
  facet normal -0 0 1
    outer loop
      vertex 0.780361 -3.92314 10
      vertex 40 -30 10
      vertex 1.53073 -3.69552 10
    endloop
  endfacet
  facet normal -0 0 1
    outer loop
      vertex 0 -4 10
      vertex 40 -30 10
      vertex 0.780361 -3.92314 10
    endloop
  endfacet
  facet normal 0 0 1
    outer loop
      vertex -40 -30 10
      vertex 0 -4 10
      vertex -0.780361 -3.92314 10
    endloop
  endfacet
  facet normal 0 0 1
    outer loop
      vertex -40 -30 10
      vertex -0.780361 -3.92314 10
      vertex -1.53073 -3.69552 10
    endloop
  endfacet
  facet normal 0 0 1
    outer loop
      vertex -40 -30 10
      vertex -1.53073 -3.69552 10
      vertex -2.22228 -3.32588 10
    endloop
  endfacet
  facet normal 0 0 1
    outer loop
      vertex -40 -30 10
      vertex -4 0 10
      vertex -40 30 10
    endloop
  endfacet
  facet normal 0 0 1
    outer loop
      vertex -4 0 10
      vertex -40 -30 10
      vertex -3.92314 -0.780361 10
    endloop
  endfacet
  facet normal 0 0 1
    outer loop
      vertex -3.92314 -0.780361 10
      vertex -40 -30 10
      vertex -3.69552 -1.53073 10
    endloop
  endfacet
  facet normal 0 0 1
    outer loop
      vertex -3.69552 -1.53073 10
      vertex -40 -30 10
      vertex -3.32588 -2.22228 10
    endloop
  endfacet
  facet normal 0 0 1
    outer loop
      vertex 0 -4 10
      vertex -40 -30 10
      vertex 40 -30 10
    endloop
  endfacet
  facet normal 0 0 1
    outer loop
      vertex -2.82843 -2.82843 10
      vertex -40 -30 10
      vertex -2.22228 -3.32588 10
    endloop
  endfacet
  facet normal 0 0 1
    outer loop
      vertex -3.32588 -2.22228 10
      vertex -40 -30 10
      vertex -2.82843 -2.82843 10
    endloop
  endfacet
  facet normal 0 0 -1
    outer loop
      vertex -40 -30 -10
      vertex 40 30 -10
      vertex 40 -30 -10
    endloop
  endfacet
  facet normal -0 0 -1
    outer loop
      vertex 40 30 -10
      vertex -40 -30 -10
      vertex -40 30 -10
    endloop
  endfacet
  facet normal -1 0 0
    outer loop
      vertex -40 -30 -10
      vertex -40 30 10
      vertex -40 30 -10
    endloop
  endfacet
  facet normal -1 -0 0
    outer loop
      vertex -40 30 10
      vertex -40 -30 -10
      vertex -40 -30 10
    endloop
  endfacet
  facet normal 0 1 -0
    outer loop
      vertex 40 30 -10
      vertex -40 30 10
      vertex 40 30 10
    endloop
  endfacet
  facet normal 0 1 0
    outer loop
      vertex -40 30 10
      vertex 40 30 -10
      vertex -40 30 -10
    endloop
  endfacet
  facet normal 0 -1 0
    outer loop
      vertex -40 -30 10
      vertex 0 -30 3
      vertex 40 -30 10
    endloop
  endfacet
  facet normal 0 -1 0
    outer loop
      vertex -40 -30 10
      vertex -0.585271 -30 2.94236
      vertex 0 -30 3
    endloop
  endfacet
  facet normal 0 -1 0
    outer loop
      vertex -40 -30 10
      vertex -1.14805 -30 2.77164
      vertex -0.585271 -30 2.94236
    endloop
  endfacet
  facet normal 0 -1 0
    outer loop
      vertex -40 -30 10
      vertex -1.66671 -30 2.49441
      vertex -1.14805 -30 2.77164
    endloop
  endfacet
  facet normal 0 -1 0
    outer loop
      vertex -40 -30 10
      vertex -2.12132 -30 2.12132
      vertex -1.66671 -30 2.49441
    endloop
  endfacet
  facet normal 0 -1 0
    outer loop
      vertex -40 -30 10
      vertex -2.49441 -30 1.66671
      vertex -2.12132 -30 2.12132
    endloop
  endfacet
  facet normal 0 -1 0
    outer loop
      vertex -40 -30 10
      vertex -2.77164 -30 1.14805
      vertex -2.49441 -30 1.66671
    endloop
  endfacet
  facet normal 0 -1 0
    outer loop
      vertex -40 -30 10
      vertex -2.94236 -30 0.585271
      vertex -2.77164 -30 1.14805
    endloop
  endfacet
  facet normal 0 -1 0
    outer loop
      vertex -40 -30 10
      vertex -3 -30 0
      vertex -2.94236 -30 0.585271
    endloop
  endfacet
  facet normal 0 -1 0
    outer loop
      vertex -40 -30 -10
      vertex -3 -30 0
      vertex -40 -30 10
    endloop
  endfacet
  facet normal 0 -1 -0
    outer loop
      vertex -3 -30 0
      vertex -40 -30 -10
      vertex -2.94236 -30 -0.585271
    endloop
  endfacet
  facet normal 0 -1 -0
    outer loop
      vertex -2.94236 -30 -0.585271
      vertex -40 -30 -10
      vertex -2.77164 -30 -1.14805
    endloop
  endfacet
  facet normal 0 -1 -0
    outer loop
      vertex -2.77164 -30 -1.14805
      vertex -40 -30 -10
      vertex -2.49441 -30 -1.66671
    endloop
  endfacet
  facet normal 0 -1 -0
    outer loop
      vertex -2.49441 -30 -1.66671
      vertex -40 -30 -10
      vertex -2.12132 -30 -2.12132
    endloop
  endfacet
  facet normal 0 -1 -0
    outer loop
      vertex -2.12132 -30 -2.12132
      vertex -40 -30 -10
      vertex -1.66671 -30 -2.49441
    endloop
  endfacet
  facet normal 0 -1 -0
    outer loop
      vertex -0.585271 -30 -2.94236
      vertex -40 -30 -10
      vertex 0 -30 -3
    endloop
  endfacet
  facet normal 0 -1 -0
    outer loop
      vertex -1.14805 -30 -2.77164
      vertex -40 -30 -10
      vertex -0.585271 -30 -2.94236
    endloop
  endfacet
  facet normal 0 -1 -0
    outer loop
      vertex -1.66671 -30 -2.49441
      vertex -40 -30 -10
      vertex -1.14805 -30 -2.77164
    endloop
  endfacet
  facet normal 0 -1 0
    outer loop
      vertex 0.585271 -30 2.94236
      vertex 40 -30 10
      vertex 0 -30 3
    endloop
  endfacet
  facet normal 0 -1 0
    outer loop
      vertex 1.14805 -30 2.77164
      vertex 40 -30 10
      vertex 0.585271 -30 2.94236
    endloop
  endfacet
  facet normal 0 -1 0
    outer loop
      vertex 1.66671 -30 2.49441
      vertex 40 -30 10
      vertex 1.14805 -30 2.77164
    endloop
  endfacet
  facet normal 0 -1 0
    outer loop
      vertex 2.12132 -30 2.12132
      vertex 40 -30 10
      vertex 1.66671 -30 2.49441
    endloop
  endfacet
  facet normal 0 -1 0
    outer loop
      vertex 2.49441 -30 1.66671
      vertex 40 -30 10
      vertex 2.12132 -30 2.12132
    endloop
  endfacet
  facet normal 0 -1 0
    outer loop
      vertex 2.77164 -30 1.14805
      vertex 40 -30 10
      vertex 2.49441 -30 1.66671
    endloop
  endfacet
  facet normal 0 -1 0
    outer loop
      vertex 2.94236 -30 0.585271
      vertex 40 -30 10
      vertex 2.77164 -30 1.14805
    endloop
  endfacet
  facet normal 0 -1 0
    outer loop
      vertex 3 -30 0
      vertex 40 -30 10
      vertex 2.94236 -30 0.585271
    endloop
  endfacet
  facet normal 0 -1 0
    outer loop
      vertex 40 -30 -10
      vertex 3 -30 0
      vertex 2.94236 -30 -0.585271
    endloop
  endfacet
  facet normal 0 -1 0
    outer loop
      vertex 40 -30 -10
      vertex 2.94236 -30 -0.585271
      vertex 2.77164 -30 -1.14805
    endloop
  endfacet
  facet normal 0 -1 0
    outer loop
      vertex 40 -30 -10
      vertex 2.77164 -30 -1.14805
      vertex 2.49441 -30 -1.66671
    endloop
  endfacet
  facet normal 0 -1 0
    outer loop
      vertex 40 -30 -10
      vertex 2.49441 -30 -1.66671
      vertex 2.12132 -30 -2.12132
    endloop
  endfacet
  facet normal 0 -1 0
    outer loop
      vertex 40 -30 -10
      vertex 2.12132 -30 -2.12132
      vertex 1.66671 -30 -2.49441
    endloop
  endfacet
  facet normal 0 -1 0
    outer loop
      vertex 40 -30 -10
      vertex 1.66671 -30 -2.49441
      vertex 1.14805 -30 -2.77164
    endloop
  endfacet
  facet normal 0 -1 0
    outer loop
      vertex 40 -30 -10
      vertex 0 -30 -3
      vertex -40 -30 -10
    endloop
  endfacet
  facet normal 0 -1 0
    outer loop
      vertex 3 -30 0
      vertex 40 -30 -10
      vertex 40 -30 10
    endloop
  endfacet
  facet normal 0 -1 0
    outer loop
      vertex 0.585271 -30 -2.94236
      vertex 40 -30 -10
      vertex 1.14805 -30 -2.77164
    endloop
  endfacet
  facet normal 0 -1 0
    outer loop
      vertex 0 -30 -3
      vertex 40 -30 -10
      vertex 0.585271 -30 -2.94236
    endloop
  endfacet
  facet normal -0.881922 -0.471396 0
    outer loop
      vertex 3.69552 1.53073 7
      vertex 3.32588 2.22228 10
      vertex 3.32588 2.22228 7
    endloop
  endfacet
  facet normal -0.881922 -0.471396 0
    outer loop
      vertex 3.32588 2.22228 10
      vertex 3.69552 1.53073 7
      vertex 3.69552 1.53073 10
    endloop
  endfacet
  facet normal 0.0980186 -0.995185 0
    outer loop
      vertex -0.780361 3.92314 7
      vertex 0 4 10
      vertex -0.780361 3.92314 10
    endloop
  endfacet
  facet normal 0.0980186 -0.995185 0
    outer loop
      vertex 0 4 10
      vertex -0.780361 3.92314 7
      vertex 0 4 7
    endloop
  endfacet
  facet normal 0.995185 0.0980186 0
    outer loop
      vertex -3.92314 -0.780361 10
      vertex -4 0 7
      vertex -4 0 10
    endloop
  endfacet
  facet normal 0.995185 0.0980186 0
    outer loop
      vertex -4 0 7
      vertex -3.92314 -0.780361 10
      vertex -3.92314 -0.780361 7
    endloop
  endfacet
  facet normal -0.956941 -0.290282 0
    outer loop
      vertex 3.92314 0.780361 7
      vertex 3.69552 1.53073 10
      vertex 3.69552 1.53073 7
    endloop
  endfacet
  facet normal -0.956941 -0.290282 0
    outer loop
      vertex 3.69552 1.53073 10
      vertex 3.92314 0.780361 7
      vertex 3.92314 0.780361 10
    endloop
  endfacet
  facet normal -0.995185 0.0980186 0
    outer loop
      vertex 3.92314 -0.780361 7
      vertex 4 0 10
      vertex 4 0 7
    endloop
  endfacet
  facet normal -0.995185 0.0980186 0
    outer loop
      vertex 4 0 10
      vertex 3.92314 -0.780361 7
      vertex 3.92314 -0.780361 10
    endloop
  endfacet
  facet normal -0.471396 -0.881922 0
    outer loop
      vertex 1.53073 3.69552 7
      vertex 2.22228 3.32588 10
      vertex 1.53073 3.69552 10
    endloop
  endfacet
  facet normal -0.471396 -0.881922 -0
    outer loop
      vertex 2.22228 3.32588 10
      vertex 1.53073 3.69552 7
      vertex 2.22228 3.32588 7
    endloop
  endfacet
  facet normal -0.773013 -0.63439 0
    outer loop
      vertex 3.32588 2.22228 7
      vertex 2.82843 2.82843 10
      vertex 2.82843 2.82843 7
    endloop
  endfacet
  facet normal -0.773013 -0.63439 0
    outer loop
      vertex 2.82843 2.82843 10
      vertex 3.32588 2.22228 7
      vertex 3.32588 2.22228 10
    endloop
  endfacet
  facet normal 0.956941 -0.290282 0
    outer loop
      vertex -3.92314 0.780361 10
      vertex -3.69552 1.53073 7
      vertex -3.69552 1.53073 10
    endloop
  endfacet
  facet normal 0.956941 -0.290282 0
    outer loop
      vertex -3.69552 1.53073 7
      vertex -3.92314 0.780361 10
      vertex -3.92314 0.780361 7
    endloop
  endfacet
  facet normal -0.995185 -0.0980186 0
    outer loop
      vertex 4 0 7
      vertex 3.92314 0.780361 10
      vertex 3.92314 0.780361 7
    endloop
  endfacet
  facet normal -0.995185 -0.0980186 0
    outer loop
      vertex 3.92314 0.780361 10
      vertex 4 0 7
      vertex 4 0 10
    endloop
  endfacet
  facet normal 0.290282 0.956941 -0
    outer loop
      vertex -0.780361 -3.92314 7
      vertex -1.53073 -3.69552 10
      vertex -0.780361 -3.92314 10
    endloop
  endfacet
  facet normal 0.290282 0.956941 0
    outer loop
      vertex -1.53073 -3.69552 10
      vertex -0.780361 -3.92314 7
      vertex -1.53073 -3.69552 7
    endloop
  endfacet
  facet normal -0.0980186 -0.995185 0
    outer loop
      vertex 0 4 7
      vertex 0.780361 3.92314 10
      vertex 0 4 10
    endloop
  endfacet
  facet normal -0.0980186 -0.995185 -0
    outer loop
      vertex 0.780361 3.92314 10
      vertex 0 4 7
      vertex 0.780361 3.92314 7
    endloop
  endfacet
  facet normal -0.63439 0.773013 0
    outer loop
      vertex 2.82843 -2.82843 7
      vertex 2.22228 -3.32588 10
      vertex 2.82843 -2.82843 10
    endloop
  endfacet
  facet normal -0.63439 0.773013 0
    outer loop
      vertex 2.22228 -3.32588 10
      vertex 2.82843 -2.82843 7
      vertex 2.22228 -3.32588 7
    endloop
  endfacet
  facet normal -0.0980186 0.995185 0
    outer loop
      vertex 0.780361 -3.92314 7
      vertex 0 -4 10
      vertex 0.780361 -3.92314 10
    endloop
  endfacet
  facet normal -0.0980186 0.995185 0
    outer loop
      vertex 0 -4 10
      vertex 0.780361 -3.92314 7
      vertex 0 -4 7
    endloop
  endfacet
  facet normal 0.995185 -0.0980186 0
    outer loop
      vertex -4 0 10
      vertex -3.92314 0.780361 7
      vertex -3.92314 0.780361 10
    endloop
  endfacet
  facet normal 0.995185 -0.0980186 0
    outer loop
      vertex -3.92314 0.780361 7
      vertex -4 0 10
      vertex -4 0 7
    endloop
  endfacet
  facet normal 0.63439 0.773013 -0
    outer loop
      vertex -2.22228 -3.32588 7
      vertex -2.82843 -2.82843 10
      vertex -2.22228 -3.32588 10
    endloop
  endfacet
  facet normal 0.63439 0.773013 0
    outer loop
      vertex -2.82843 -2.82843 10
      vertex -2.22228 -3.32588 7
      vertex -2.82843 -2.82843 7
    endloop
  endfacet
  facet normal 0.290282 -0.956941 0
    outer loop
      vertex -1.53073 3.69552 7
      vertex -0.780361 3.92314 10
      vertex -1.53073 3.69552 10
    endloop
  endfacet
  facet normal 0.290282 -0.956941 0
    outer loop
      vertex -0.780361 3.92314 10
      vertex -1.53073 3.69552 7
      vertex -0.780361 3.92314 7
    endloop
  endfacet
  facet normal -0.471396 0.881922 0
    outer loop
      vertex 2.22228 -3.32588 7
      vertex 1.53073 -3.69552 10
      vertex 2.22228 -3.32588 10
    endloop
  endfacet
  facet normal -0.471396 0.881922 0
    outer loop
      vertex 1.53073 -3.69552 10
      vertex 2.22228 -3.32588 7
      vertex 1.53073 -3.69552 7
    endloop
  endfacet
  facet normal -0.290282 -0.956941 0
    outer loop
      vertex 0.780361 3.92314 7
      vertex 1.53073 3.69552 10
      vertex 0.780361 3.92314 10
    endloop
  endfacet
  facet normal -0.290282 -0.956941 -0
    outer loop
      vertex 1.53073 3.69552 10
      vertex 0.780361 3.92314 7
      vertex 1.53073 3.69552 7
    endloop
  endfacet
  facet normal -0.63439 -0.773013 0
    outer loop
      vertex 2.22228 3.32588 7
      vertex 2.82843 2.82843 10
      vertex 2.22228 3.32588 10
    endloop
  endfacet
  facet normal -0.63439 -0.773013 -0
    outer loop
      vertex 2.82843 2.82843 10
      vertex 2.22228 3.32588 7
      vertex 2.82843 2.82843 7
    endloop
  endfacet
  facet normal 0.773013 -0.63439 0
    outer loop
      vertex -3.32588 2.22228 10
      vertex -2.82843 2.82843 7
      vertex -2.82843 2.82843 10
    endloop
  endfacet
  facet normal 0.773013 -0.63439 0
    outer loop
      vertex -2.82843 2.82843 7
      vertex -3.32588 2.22228 10
      vertex -3.32588 2.22228 7
    endloop
  endfacet
  facet normal 0.63439 -0.773013 0
    outer loop
      vertex -2.82843 2.82843 7
      vertex -2.22228 3.32588 10
      vertex -2.82843 2.82843 10
    endloop
  endfacet
  facet normal 0.63439 -0.773013 0
    outer loop
      vertex -2.22228 3.32588 10
      vertex -2.82843 2.82843 7
      vertex -2.22228 3.32588 7
    endloop
  endfacet
  facet normal 0.471396 -0.881922 0
    outer loop
      vertex -2.22228 3.32588 7
      vertex -1.53073 3.69552 10
      vertex -2.22228 3.32588 10
    endloop
  endfacet
  facet normal 0.471396 -0.881922 0
    outer loop
      vertex -1.53073 3.69552 10
      vertex -2.22228 3.32588 7
      vertex -1.53073 3.69552 7
    endloop
  endfacet
  facet normal 0.773013 0.63439 0
    outer loop
      vertex -2.82843 -2.82843 10
      vertex -3.32588 -2.22228 7
      vertex -3.32588 -2.22228 10
    endloop
  endfacet
  facet normal 0.773013 0.63439 0
    outer loop
      vertex -3.32588 -2.22228 7
      vertex -2.82843 -2.82843 10
      vertex -2.82843 -2.82843 7
    endloop
  endfacet
  facet normal 0.881922 0.471396 0
    outer loop
      vertex -3.32588 -2.22228 10
      vertex -3.69552 -1.53073 7
      vertex -3.69552 -1.53073 10
    endloop
  endfacet
  facet normal 0.881922 0.471396 0
    outer loop
      vertex -3.69552 -1.53073 7
      vertex -3.32588 -2.22228 10
      vertex -3.32588 -2.22228 7
    endloop
  endfacet
  facet normal -0.290282 0.956941 0
    outer loop
      vertex 1.53073 -3.69552 7
      vertex 0.780361 -3.92314 10
      vertex 1.53073 -3.69552 10
    endloop
  endfacet
  facet normal -0.290282 0.956941 0
    outer loop
      vertex 0.780361 -3.92314 10
      vertex 1.53073 -3.69552 7
      vertex 0.780361 -3.92314 7
    endloop
  endfacet
  facet normal 0.956941 0.290282 0
    outer loop
      vertex -3.69552 -1.53073 10
      vertex -3.92314 -0.780361 7
      vertex -3.92314 -0.780361 10
    endloop
  endfacet
  facet normal 0.956941 0.290282 0
    outer loop
      vertex -3.92314 -0.780361 7
      vertex -3.69552 -1.53073 10
      vertex -3.69552 -1.53073 7
    endloop
  endfacet
  facet normal 0.881922 -0.471396 0
    outer loop
      vertex -3.69552 1.53073 10
      vertex -3.32588 2.22228 7
      vertex -3.32588 2.22228 10
    endloop
  endfacet
  facet normal 0.881922 -0.471396 0
    outer loop
      vertex -3.32588 2.22228 7
      vertex -3.69552 1.53073 10
      vertex -3.69552 1.53073 7
    endloop
  endfacet
  facet normal -0.881922 0.471396 0
    outer loop
      vertex 3.32588 -2.22228 7
      vertex 3.69552 -1.53073 10
      vertex 3.69552 -1.53073 7
    endloop
  endfacet
  facet normal -0.881922 0.471396 0
    outer loop
      vertex 3.69552 -1.53073 10
      vertex 3.32588 -2.22228 7
      vertex 3.32588 -2.22228 10
    endloop
  endfacet
  facet normal -0.773013 0.63439 0
    outer loop
      vertex 2.82843 -2.82843 7
      vertex 3.32588 -2.22228 10
      vertex 3.32588 -2.22228 7
    endloop
  endfacet
  facet normal -0.773013 0.63439 0
    outer loop
      vertex 3.32588 -2.22228 10
      vertex 2.82843 -2.82843 7
      vertex 2.82843 -2.82843 10
    endloop
  endfacet
  facet normal 0 0 1
    outer loop
      vertex 3.92314 0.780361 7
      vertex 3.92314 -0.780361 7
      vertex 4 0 7
    endloop
  endfacet
  facet normal 0 0 1
    outer loop
      vertex 3.69552 1.53073 7
      vertex 3.92314 -0.780361 7
      vertex 3.92314 0.780361 7
    endloop
  endfacet
  facet normal 0 0 1
    outer loop
      vertex 3.69552 1.53073 7
      vertex 3.69552 -1.53073 7
      vertex 3.92314 -0.780361 7
    endloop
  endfacet
  facet normal 0 0 1
    outer loop
      vertex 3.32588 2.22228 7
      vertex 3.69552 -1.53073 7
      vertex 3.69552 1.53073 7
    endloop
  endfacet
  facet normal 0 0 1
    outer loop
      vertex 3.32588 2.22228 7
      vertex 3.32588 -2.22228 7
      vertex 3.69552 -1.53073 7
    endloop
  endfacet
  facet normal 0 0 1
    outer loop
      vertex 2.82843 2.82843 7
      vertex 3.32588 -2.22228 7
      vertex 3.32588 2.22228 7
    endloop
  endfacet
  facet normal 0 0 1
    outer loop
      vertex 2.82843 2.82843 7
      vertex 2.82843 -2.82843 7
      vertex 3.32588 -2.22228 7
    endloop
  endfacet
  facet normal 0 0 1
    outer loop
      vertex 2.22228 3.32588 7
      vertex 2.82843 -2.82843 7
      vertex 2.82843 2.82843 7
    endloop
  endfacet
  facet normal 0 0 1
    outer loop
      vertex 2.22228 3.32588 7
      vertex 2.22228 -3.32588 7
      vertex 2.82843 -2.82843 7
    endloop
  endfacet
  facet normal 0 0 1
    outer loop
      vertex 1.53073 3.69552 7
      vertex 2.22228 -3.32588 7
      vertex 2.22228 3.32588 7
    endloop
  endfacet
  facet normal 0 0 1
    outer loop
      vertex 1.53073 3.69552 7
      vertex 1.53073 -3.69552 7
      vertex 2.22228 -3.32588 7
    endloop
  endfacet
  facet normal 0 0 1
    outer loop
      vertex 0.780361 3.92314 7
      vertex 1.53073 -3.69552 7
      vertex 1.53073 3.69552 7
    endloop
  endfacet
  facet normal 0 0 1
    outer loop
      vertex 0.780361 3.92314 7
      vertex 0.780361 -3.92314 7
      vertex 1.53073 -3.69552 7
    endloop
  endfacet
  facet normal 0 0 1
    outer loop
      vertex 0 4 7
      vertex 0.780361 -3.92314 7
      vertex 0.780361 3.92314 7
    endloop
  endfacet
  facet normal 0 0 1
    outer loop
      vertex 0 4 7
      vertex 0 -4 7
      vertex 0.780361 -3.92314 7
    endloop
  endfacet
  facet normal -0 0 1
    outer loop
      vertex -0.780361 3.92314 7
      vertex 0 -4 7
      vertex 0 4 7
    endloop
  endfacet
  facet normal 0 0 1
    outer loop
      vertex -0.780361 3.92314 7
      vertex -0.780361 -3.92314 7
      vertex 0 -4 7
    endloop
  endfacet
  facet normal -0 0 1
    outer loop
      vertex -1.53073 3.69552 7
      vertex -0.780361 -3.92314 7
      vertex -0.780361 3.92314 7
    endloop
  endfacet
  facet normal 0 0 1
    outer loop
      vertex -1.53073 3.69552 7
      vertex -1.53073 -3.69552 7
      vertex -0.780361 -3.92314 7
    endloop
  endfacet
  facet normal -0 0 1
    outer loop
      vertex -2.22228 3.32588 7
      vertex -1.53073 -3.69552 7
      vertex -1.53073 3.69552 7
    endloop
  endfacet
  facet normal 0 0 1
    outer loop
      vertex -2.22228 3.32588 7
      vertex -2.22228 -3.32588 7
      vertex -1.53073 -3.69552 7
    endloop
  endfacet
  facet normal -0 0 1
    outer loop
      vertex -2.82843 2.82843 7
      vertex -2.22228 -3.32588 7
      vertex -2.22228 3.32588 7
    endloop
  endfacet
  facet normal 0 0 1
    outer loop
      vertex -2.82843 2.82843 7
      vertex -2.82843 -2.82843 7
      vertex -2.22228 -3.32588 7
    endloop
  endfacet
  facet normal -0 0 1
    outer loop
      vertex -3.32588 2.22228 7
      vertex -2.82843 -2.82843 7
      vertex -2.82843 2.82843 7
    endloop
  endfacet
  facet normal 0 0 1
    outer loop
      vertex -3.32588 2.22228 7
      vertex -3.32588 -2.22228 7
      vertex -2.82843 -2.82843 7
    endloop
  endfacet
  facet normal -0 0 1
    outer loop
      vertex -3.69552 1.53073 7
      vertex -3.32588 -2.22228 7
      vertex -3.32588 2.22228 7
    endloop
  endfacet
  facet normal 0 0 1
    outer loop
      vertex -3.69552 1.53073 7
      vertex -3.69552 -1.53073 7
      vertex -3.32588 -2.22228 7
    endloop
  endfacet
  facet normal -0 0 1
    outer loop
      vertex -3.92314 0.780361 7
      vertex -3.69552 -1.53073 7
      vertex -3.69552 1.53073 7
    endloop
  endfacet
  facet normal 0 0 1
    outer loop
      vertex -3.92314 0.780361 7
      vertex -3.92314 -0.780361 7
      vertex -3.69552 -1.53073 7
    endloop
  endfacet
  facet normal 0 -0 1
    outer loop
      vertex -3.92314 -0.780361 7
      vertex -3.92314 0.780361 7
      vertex -4 0 7
    endloop
  endfacet
  facet normal 0.0980186 0.995185 -0
    outer loop
      vertex 0 -4 7
      vertex -0.780361 -3.92314 10
      vertex 0 -4 10
    endloop
  endfacet
  facet normal 0.0980186 0.995185 0
    outer loop
      vertex -0.780361 -3.92314 10
      vertex 0 -4 7
      vertex -0.780361 -3.92314 7
    endloop
  endfacet
  facet normal 0.471396 0.881922 -0
    outer loop
      vertex -1.53073 -3.69552 7
      vertex -2.22228 -3.32588 10
      vertex -1.53073 -3.69552 10
    endloop
  endfacet
  facet normal 0.471396 0.881922 0
    outer loop
      vertex -2.22228 -3.32588 10
      vertex -1.53073 -3.69552 7
      vertex -2.22228 -3.32588 7
    endloop
  endfacet
  facet normal -0.956941 0.290282 0
    outer loop
      vertex 3.69552 -1.53073 7
      vertex 3.92314 -0.780361 10
      vertex 3.92314 -0.780361 7
    endloop
  endfacet
  facet normal -0.956941 0.290282 0
    outer loop
      vertex 3.92314 -0.780361 10
      vertex 3.69552 -1.53073 7
      vertex 3.69552 -1.53073 10
    endloop
  endfacet
  facet normal 0.471397 0 -0.881921
    outer loop
      vertex -1.66671 -30 2.49441
      vertex -1.14805 -29 2.77164
      vertex -1.14805 -30 2.77164
    endloop
  endfacet
  facet normal 0.471397 0 -0.881921
    outer loop
      vertex -1.14805 -29 2.77164
      vertex -1.66671 -30 2.49441
      vertex -1.66671 -29 2.49441
    endloop
  endfacet
  facet normal -0.956939 0 -0.290289
    outer loop
      vertex 2.94236 -30 0.585271
      vertex 2.77164 -29 1.14805
      vertex 2.94236 -29 0.585271
    endloop
  endfacet
  facet normal -0.956939 -0 -0.290289
    outer loop
      vertex 2.77164 -29 1.14805
      vertex 2.94236 -30 0.585271
      vertex 2.77164 -30 1.14805
    endloop
  endfacet
  facet normal -0.995185 0 -0.0980101
    outer loop
      vertex 3 -30 0
      vertex 2.94236 -29 0.585271
      vertex 3 -29 0
    endloop
  endfacet
  facet normal -0.995185 -0 -0.0980101
    outer loop
      vertex 2.94236 -29 0.585271
      vertex 3 -30 0
      vertex 2.94236 -30 0.585271
    endloop
  endfacet
  facet normal -0.0980101 0 -0.995185
    outer loop
      vertex 0 -30 3
      vertex 0.585271 -29 2.94236
      vertex 0.585271 -30 2.94236
    endloop
  endfacet
  facet normal -0.0980101 0 -0.995185
    outer loop
      vertex 0.585271 -29 2.94236
      vertex 0 -30 3
      vertex 0 -29 3
    endloop
  endfacet
  facet normal -0.0980101 0 0.995185
    outer loop
      vertex 0 -29 -3
      vertex 0.585271 -30 -2.94236
      vertex 0.585271 -29 -2.94236
    endloop
  endfacet
  facet normal -0.0980101 0 0.995185
    outer loop
      vertex 0.585271 -30 -2.94236
      vertex 0 -29 -3
      vertex 0 -30 -3
    endloop
  endfacet
  facet normal -0.290289 0 -0.956939
    outer loop
      vertex 0.585271 -30 2.94236
      vertex 1.14805 -29 2.77164
      vertex 1.14805 -30 2.77164
    endloop
  endfacet
  facet normal -0.290289 0 -0.956939
    outer loop
      vertex 1.14805 -29 2.77164
      vertex 0.585271 -30 2.94236
      vertex 0.585271 -29 2.94236
    endloop
  endfacet
  facet normal -0.634395 0 -0.773009
    outer loop
      vertex 1.66671 -30 2.49441
      vertex 2.12132 -29 2.12132
      vertex 2.12132 -30 2.12132
    endloop
  endfacet
  facet normal -0.634395 0 -0.773009
    outer loop
      vertex 2.12132 -29 2.12132
      vertex 1.66671 -30 2.49441
      vertex 1.66671 -29 2.49441
    endloop
  endfacet
  facet normal -0.290289 0 0.956939
    outer loop
      vertex 0.585271 -29 -2.94236
      vertex 1.14805 -30 -2.77164
      vertex 1.14805 -29 -2.77164
    endloop
  endfacet
  facet normal -0.290289 0 0.956939
    outer loop
      vertex 1.14805 -30 -2.77164
      vertex 0.585271 -29 -2.94236
      vertex 0.585271 -30 -2.94236
    endloop
  endfacet
  facet normal -0.773009 0 0.634395
    outer loop
      vertex 2.12132 -30 -2.12132
      vertex 2.49441 -29 -1.66671
      vertex 2.12132 -29 -2.12132
    endloop
  endfacet
  facet normal -0.773009 0 0.634395
    outer loop
      vertex 2.49441 -29 -1.66671
      vertex 2.12132 -30 -2.12132
      vertex 2.49441 -30 -1.66671
    endloop
  endfacet
  facet normal -0.881921 0 -0.471397
    outer loop
      vertex 2.77164 -30 1.14805
      vertex 2.49441 -29 1.66671
      vertex 2.77164 -29 1.14805
    endloop
  endfacet
  facet normal -0.881921 -0 -0.471397
    outer loop
      vertex 2.49441 -29 1.66671
      vertex 2.77164 -30 1.14805
      vertex 2.49441 -30 1.66671
    endloop
  endfacet
  facet normal 0.634395 0 -0.773009
    outer loop
      vertex -2.12132 -30 2.12132
      vertex -1.66671 -29 2.49441
      vertex -1.66671 -30 2.49441
    endloop
  endfacet
  facet normal 0.634395 0 -0.773009
    outer loop
      vertex -1.66671 -29 2.49441
      vertex -2.12132 -30 2.12132
      vertex -2.12132 -29 2.12132
    endloop
  endfacet
  facet normal -0.471397 0 0.881921
    outer loop
      vertex 1.14805 -29 -2.77164
      vertex 1.66671 -30 -2.49441
      vertex 1.66671 -29 -2.49441
    endloop
  endfacet
  facet normal -0.471397 0 0.881921
    outer loop
      vertex 1.66671 -30 -2.49441
      vertex 1.14805 -29 -2.77164
      vertex 1.14805 -30 -2.77164
    endloop
  endfacet
  facet normal -0.995185 0 0.0980101
    outer loop
      vertex 2.94236 -30 -0.585271
      vertex 3 -29 0
      vertex 2.94236 -29 -0.585271
    endloop
  endfacet
  facet normal -0.995185 0 0.0980101
    outer loop
      vertex 3 -29 0
      vertex 2.94236 -30 -0.585271
      vertex 3 -30 0
    endloop
  endfacet
  facet normal 0.290289 0 -0.956939
    outer loop
      vertex -1.14805 -30 2.77164
      vertex -0.585271 -29 2.94236
      vertex -0.585271 -30 2.94236
    endloop
  endfacet
  facet normal 0.290289 0 -0.956939
    outer loop
      vertex -0.585271 -29 2.94236
      vertex -1.14805 -30 2.77164
      vertex -1.14805 -29 2.77164
    endloop
  endfacet
  facet normal -0.471397 0 -0.881921
    outer loop
      vertex 1.14805 -30 2.77164
      vertex 1.66671 -29 2.49441
      vertex 1.66671 -30 2.49441
    endloop
  endfacet
  facet normal -0.471397 0 -0.881921
    outer loop
      vertex 1.66671 -29 2.49441
      vertex 1.14805 -30 2.77164
      vertex 1.14805 -29 2.77164
    endloop
  endfacet
  facet normal 0 -1 0
    outer loop
      vertex -0.585271 -29 2.94236
      vertex 0.585271 -29 2.94236
      vertex 0 -29 3
    endloop
  endfacet
  facet normal 0 -1 0
    outer loop
      vertex -1.14805 -29 2.77164
      vertex 0.585271 -29 2.94236
      vertex -0.585271 -29 2.94236
    endloop
  endfacet
  facet normal 0 -1 0
    outer loop
      vertex -1.14805 -29 2.77164
      vertex 1.14805 -29 2.77164
      vertex 0.585271 -29 2.94236
    endloop
  endfacet
  facet normal 0 -1 0
    outer loop
      vertex -1.66671 -29 2.49441
      vertex 1.14805 -29 2.77164
      vertex -1.14805 -29 2.77164
    endloop
  endfacet
  facet normal 0 -1 0
    outer loop
      vertex -1.66671 -29 2.49441
      vertex 1.66671 -29 2.49441
      vertex 1.14805 -29 2.77164
    endloop
  endfacet
  facet normal 0 -1 0
    outer loop
      vertex -2.12132 -29 2.12132
      vertex 1.66671 -29 2.49441
      vertex -1.66671 -29 2.49441
    endloop
  endfacet
  facet normal 0 -1 0
    outer loop
      vertex -2.12132 -29 2.12132
      vertex 2.12132 -29 2.12132
      vertex 1.66671 -29 2.49441
    endloop
  endfacet
  facet normal 0 -1 0
    outer loop
      vertex -2.49441 -29 1.66671
      vertex 2.12132 -29 2.12132
      vertex -2.12132 -29 2.12132
    endloop
  endfacet
  facet normal 0 -1 0
    outer loop
      vertex -2.49441 -29 1.66671
      vertex 2.49441 -29 1.66671
      vertex 2.12132 -29 2.12132
    endloop
  endfacet
  facet normal 0 -1 0
    outer loop
      vertex -2.77164 -29 1.14805
      vertex 2.49441 -29 1.66671
      vertex -2.49441 -29 1.66671
    endloop
  endfacet
  facet normal 0 -1 0
    outer loop
      vertex -2.77164 -29 1.14805
      vertex 2.77164 -29 1.14805
      vertex 2.49441 -29 1.66671
    endloop
  endfacet
  facet normal 0 -1 0
    outer loop
      vertex -2.94236 -29 0.585271
      vertex 2.77164 -29 1.14805
      vertex -2.77164 -29 1.14805
    endloop
  endfacet
  facet normal 0 -1 0
    outer loop
      vertex -2.94236 -29 0.585271
      vertex 2.94236 -29 0.585271
      vertex 2.77164 -29 1.14805
    endloop
  endfacet
  facet normal 0 -1 0
    outer loop
      vertex -3 -29 0
      vertex 2.94236 -29 0.585271
      vertex -2.94236 -29 0.585271
    endloop
  endfacet
  facet normal 0 -1 0
    outer loop
      vertex -3 -29 0
      vertex 3 -29 0
      vertex 2.94236 -29 0.585271
    endloop
  endfacet
  facet normal 0 -1 0
    outer loop
      vertex -2.94236 -29 -0.585271
      vertex 3 -29 0
      vertex -3 -29 0
    endloop
  endfacet
  facet normal 0 -1 0
    outer loop
      vertex -2.94236 -29 -0.585271
      vertex 2.94236 -29 -0.585271
      vertex 3 -29 0
    endloop
  endfacet
  facet normal 0 -1 0
    outer loop
      vertex -2.77164 -29 -1.14805
      vertex 2.94236 -29 -0.585271
      vertex -2.94236 -29 -0.585271
    endloop
  endfacet
  facet normal 0 -1 0
    outer loop
      vertex -2.77164 -29 -1.14805
      vertex 2.77164 -29 -1.14805
      vertex 2.94236 -29 -0.585271
    endloop
  endfacet
  facet normal 0 -1 0
    outer loop
      vertex -2.49441 -29 -1.66671
      vertex 2.77164 -29 -1.14805
      vertex -2.77164 -29 -1.14805
    endloop
  endfacet
  facet normal 0 -1 0
    outer loop
      vertex -2.49441 -29 -1.66671
      vertex 2.49441 -29 -1.66671
      vertex 2.77164 -29 -1.14805
    endloop
  endfacet
  facet normal 0 -1 0
    outer loop
      vertex -2.12132 -29 -2.12132
      vertex 2.49441 -29 -1.66671
      vertex -2.49441 -29 -1.66671
    endloop
  endfacet
  facet normal 0 -1 0
    outer loop
      vertex -2.12132 -29 -2.12132
      vertex 2.12132 -29 -2.12132
      vertex 2.49441 -29 -1.66671
    endloop
  endfacet
  facet normal 0 -1 0
    outer loop
      vertex -1.66671 -29 -2.49441
      vertex 2.12132 -29 -2.12132
      vertex -2.12132 -29 -2.12132
    endloop
  endfacet
  facet normal 0 -1 0
    outer loop
      vertex -1.66671 -29 -2.49441
      vertex 1.66671 -29 -2.49441
      vertex 2.12132 -29 -2.12132
    endloop
  endfacet
  facet normal 0 -1 0
    outer loop
      vertex -1.14805 -29 -2.77164
      vertex 1.66671 -29 -2.49441
      vertex -1.66671 -29 -2.49441
    endloop
  endfacet
  facet normal 0 -1 0
    outer loop
      vertex -1.14805 -29 -2.77164
      vertex 1.14805 -29 -2.77164
      vertex 1.66671 -29 -2.49441
    endloop
  endfacet
  facet normal 0 -1 0
    outer loop
      vertex -0.585271 -29 -2.94236
      vertex 1.14805 -29 -2.77164
      vertex -1.14805 -29 -2.77164
    endloop
  endfacet
  facet normal 0 -1 0
    outer loop
      vertex -0.585271 -29 -2.94236
      vertex 0.585271 -29 -2.94236
      vertex 1.14805 -29 -2.77164
    endloop
  endfacet
  facet normal -0 -1 0
    outer loop
      vertex 0.585271 -29 -2.94236
      vertex -0.585271 -29 -2.94236
      vertex 0 -29 -3
    endloop
  endfacet
  facet normal 0.995185 -0 0.0980101
    outer loop
      vertex -3 -30 0
      vertex -2.94236 -29 -0.585271
      vertex -3 -29 0
    endloop
  endfacet
  facet normal 0.995185 0 0.0980101
    outer loop
      vertex -2.94236 -29 -0.585271
      vertex -3 -30 0
      vertex -2.94236 -30 -0.585271
    endloop
  endfacet
  facet normal 0.290289 0 0.956939
    outer loop
      vertex -1.14805 -29 -2.77164
      vertex -0.585271 -30 -2.94236
      vertex -0.585271 -29 -2.94236
    endloop
  endfacet
  facet normal 0.290289 0 0.956939
    outer loop
      vertex -0.585271 -30 -2.94236
      vertex -1.14805 -29 -2.77164
      vertex -1.14805 -30 -2.77164
    endloop
  endfacet
  facet normal -0.956939 0 0.290289
    outer loop
      vertex 2.77164 -30 -1.14805
      vertex 2.94236 -29 -0.585271
      vertex 2.77164 -29 -1.14805
    endloop
  endfacet
  facet normal -0.956939 0 0.290289
    outer loop
      vertex 2.94236 -29 -0.585271
      vertex 2.77164 -30 -1.14805
      vertex 2.94236 -30 -0.585271
    endloop
  endfacet
  facet normal -0.773009 0 -0.634395
    outer loop
      vertex 2.49441 -30 1.66671
      vertex 2.12132 -29 2.12132
      vertex 2.49441 -29 1.66671
    endloop
  endfacet
  facet normal -0.773009 -0 -0.634395
    outer loop
      vertex 2.12132 -29 2.12132
      vertex 2.49441 -30 1.66671
      vertex 2.12132 -30 2.12132
    endloop
  endfacet
  facet normal 0.995185 0 -0.0980101
    outer loop
      vertex -2.94236 -30 0.585271
      vertex -3 -29 0
      vertex -2.94236 -29 0.585271
    endloop
  endfacet
  facet normal 0.995185 0 -0.0980101
    outer loop
      vertex -3 -29 0
      vertex -2.94236 -30 0.585271
      vertex -3 -30 0
    endloop
  endfacet
  facet normal 0.773009 0 -0.634395
    outer loop
      vertex -2.12132 -30 2.12132
      vertex -2.49441 -29 1.66671
      vertex -2.12132 -29 2.12132
    endloop
  endfacet
  facet normal 0.773009 0 -0.634395
    outer loop
      vertex -2.49441 -29 1.66671
      vertex -2.12132 -30 2.12132
      vertex -2.49441 -30 1.66671
    endloop
  endfacet
  facet normal -0.634395 0 0.773009
    outer loop
      vertex 1.66671 -29 -2.49441
      vertex 2.12132 -30 -2.12132
      vertex 2.12132 -29 -2.12132
    endloop
  endfacet
  facet normal -0.634395 0 0.773009
    outer loop
      vertex 2.12132 -30 -2.12132
      vertex 1.66671 -29 -2.49441
      vertex 1.66671 -30 -2.49441
    endloop
  endfacet
  facet normal 0.0980101 0 -0.995185
    outer loop
      vertex -0.585271 -30 2.94236
      vertex 0 -29 3
      vertex 0 -30 3
    endloop
  endfacet
  facet normal 0.0980101 0 -0.995185
    outer loop
      vertex 0 -29 3
      vertex -0.585271 -30 2.94236
      vertex -0.585271 -29 2.94236
    endloop
  endfacet
  facet normal -0.881921 0 0.471397
    outer loop
      vertex 2.49441 -30 -1.66671
      vertex 2.77164 -29 -1.14805
      vertex 2.49441 -29 -1.66671
    endloop
  endfacet
  facet normal -0.881921 0 0.471397
    outer loop
      vertex 2.77164 -29 -1.14805
      vertex 2.49441 -30 -1.66671
      vertex 2.77164 -30 -1.14805
    endloop
  endfacet
  facet normal 0.956939 -0 0.290289
    outer loop
      vertex -2.94236 -30 -0.585271
      vertex -2.77164 -29 -1.14805
      vertex -2.94236 -29 -0.585271
    endloop
  endfacet
  facet normal 0.956939 0 0.290289
    outer loop
      vertex -2.77164 -29 -1.14805
      vertex -2.94236 -30 -0.585271
      vertex -2.77164 -30 -1.14805
    endloop
  endfacet
  facet normal 0.881921 -0 0.471397
    outer loop
      vertex -2.77164 -30 -1.14805
      vertex -2.49441 -29 -1.66671
      vertex -2.77164 -29 -1.14805
    endloop
  endfacet
  facet normal 0.881921 0 0.471397
    outer loop
      vertex -2.49441 -29 -1.66671
      vertex -2.77164 -30 -1.14805
      vertex -2.49441 -30 -1.66671
    endloop
  endfacet
  facet normal 0.773009 -0 0.634395
    outer loop
      vertex -2.49441 -30 -1.66671
      vertex -2.12132 -29 -2.12132
      vertex -2.49441 -29 -1.66671
    endloop
  endfacet
  facet normal 0.773009 0 0.634395
    outer loop
      vertex -2.12132 -29 -2.12132
      vertex -2.49441 -30 -1.66671
      vertex -2.12132 -30 -2.12132
    endloop
  endfacet
  facet normal 0.881921 0 -0.471397
    outer loop
      vertex -2.49441 -30 1.66671
      vertex -2.77164 -29 1.14805
      vertex -2.49441 -29 1.66671
    endloop
  endfacet
  facet normal 0.881921 0 -0.471397
    outer loop
      vertex -2.77164 -29 1.14805
      vertex -2.49441 -30 1.66671
      vertex -2.77164 -30 1.14805
    endloop
  endfacet
  facet normal 0.634395 0 0.773009
    outer loop
      vertex -2.12132 -29 -2.12132
      vertex -1.66671 -30 -2.49441
      vertex -1.66671 -29 -2.49441
    endloop
  endfacet
  facet normal 0.634395 0 0.773009
    outer loop
      vertex -1.66671 -30 -2.49441
      vertex -2.12132 -29 -2.12132
      vertex -2.12132 -30 -2.12132
    endloop
  endfacet
  facet normal 0.956939 0 -0.290289
    outer loop
      vertex -2.77164 -30 1.14805
      vertex -2.94236 -29 0.585271
      vertex -2.77164 -29 1.14805
    endloop
  endfacet
  facet normal 0.956939 0 -0.290289
    outer loop
      vertex -2.94236 -29 0.585271
      vertex -2.77164 -30 1.14805
      vertex -2.94236 -30 0.585271
    endloop
  endfacet
  facet normal 0.0980101 0 0.995185
    outer loop
      vertex -0.585271 -29 -2.94236
      vertex 0 -30 -3
      vertex 0 -29 -3
    endloop
  endfacet
  facet normal 0.0980101 0 0.995185
    outer loop
      vertex 0 -30 -3
      vertex -0.585271 -29 -2.94236
      vertex -0.585271 -30 -2.94236
    endloop
  endfacet
  facet normal 0.471397 0 0.881921
    outer loop
      vertex -1.66671 -29 -2.49441
      vertex -1.14805 -30 -2.77164
      vertex -1.14805 -29 -2.77164
    endloop
  endfacet
  facet normal 0.471397 0 0.881921
    outer loop
      vertex -1.14805 -30 -2.77164
      vertex -1.66671 -29 -2.49441
      vertex -1.66671 -30 -2.49441
    endloop
  endfacet
endsolid OpenSCAD_Model
